# xmcd CD database file
#
# Track frame offsets:
#	150
#	21074
#	57667
#	79966
#	101358
#	128010
#	161582
#	179497
#	209320
#
# Disc length: 3159 seconds
#
# Revision: 0
# Processed by: cddbd v1.5.1PL2 Copyright (c) Steve Scherf et al.
# Submitted via: CDex 1.51
#
DISCID=750c5509
DTITLE=Giovanni Mirabassi - Architectures
DYEAR=1998
DGENRE=Jazz
TTITLE0=Un Dimanche De Pluie
TTITLE1=Café Français
TTITLE2=Really Don't Match
TTITLE3=Place De La Mairie
TTITLE4=One More Blues
TTITLE5=Rue Manin
TTITLE6=Lullaby
TTITLE7=La Fin De Quelque Chose
TTITLE8=Requiem
EXTD=YEAR: 1998
EXTT0=
EXTT1=
EXTT2=
EXTT3=
EXTT4=
EXTT5=
EXTT6=
EXTT7=
EXTT8=
PLAYORDER=
